<mxfile host="app.diagrams.net" agent="Mozilla/5.0 (Windows NT 10.0; Win64; x64) AppleWebKit/537.36 (KHTML, like Gecko) Chrome/134.0.0.0 Safari/537.36 Edg/134.0.0.0" version="26.1.1">
  <diagram name="第 1 页" id="DbBEN2hTSEgPpo7bO6vd">
    <mxGraphModel dx="2240" dy="661" grid="1" gridSize="10" guides="1" tooltips="1" connect="1" arrows="1" fold="1" page="1" pageScale="1" pageWidth="827" pageHeight="1169" math="0" shadow="0">
      <root>
        <mxCell id="0" />
        <mxCell id="1" parent="0" />
        <mxCell id="Z_lrUflyEQXZNMrl7onE-1" value="" style="rounded=0;whiteSpace=wrap;html=1;" vertex="1" parent="1">
          <mxGeometry x="260" y="130" width="120" height="60" as="geometry" />
        </mxCell>
        <mxCell id="Z_lrUflyEQXZNMrl7onE-7" style="edgeStyle=orthogonalEdgeStyle;rounded=0;orthogonalLoop=1;jettySize=auto;html=1;exitX=0;exitY=0.5;exitDx=0;exitDy=0;entryX=0.5;entryY=0;entryDx=0;entryDy=0;" edge="1" parent="1" source="Z_lrUflyEQXZNMrl7onE-2" target="Z_lrUflyEQXZNMrl7onE-3">
          <mxGeometry relative="1" as="geometry" />
        </mxCell>
        <mxCell id="Z_lrUflyEQXZNMrl7onE-8" style="edgeStyle=orthogonalEdgeStyle;rounded=0;orthogonalLoop=1;jettySize=auto;html=1;exitX=0;exitY=0.5;exitDx=0;exitDy=0;entryX=0.5;entryY=0;entryDx=0;entryDy=0;" edge="1" parent="1" source="Z_lrUflyEQXZNMrl7onE-2" target="Z_lrUflyEQXZNMrl7onE-5">
          <mxGeometry relative="1" as="geometry" />
        </mxCell>
        <mxCell id="Z_lrUflyEQXZNMrl7onE-9" style="edgeStyle=orthogonalEdgeStyle;rounded=0;orthogonalLoop=1;jettySize=auto;html=1;exitX=0;exitY=0.5;exitDx=0;exitDy=0;entryX=0.5;entryY=0;entryDx=0;entryDy=0;" edge="1" parent="1" source="Z_lrUflyEQXZNMrl7onE-2" target="Z_lrUflyEQXZNMrl7onE-6">
          <mxGeometry relative="1" as="geometry" />
        </mxCell>
        <mxCell id="Z_lrUflyEQXZNMrl7onE-12" style="edgeStyle=orthogonalEdgeStyle;rounded=0;orthogonalLoop=1;jettySize=auto;html=1;exitX=0;exitY=0.5;exitDx=0;exitDy=0;" edge="1" parent="1" source="Z_lrUflyEQXZNMrl7onE-2" target="Z_lrUflyEQXZNMrl7onE-11">
          <mxGeometry relative="1" as="geometry" />
        </mxCell>
        <mxCell id="Z_lrUflyEQXZNMrl7onE-2" value="输入是否3个数" style="rounded=0;whiteSpace=wrap;html=1;" vertex="1" parent="1">
          <mxGeometry x="130" y="360" width="100" height="40" as="geometry" />
        </mxCell>
        <mxCell id="Z_lrUflyEQXZNMrl7onE-3" value="输入是0个数" style="rounded=0;whiteSpace=wrap;html=1;" vertex="1" parent="1">
          <mxGeometry x="40" y="460" width="110" height="40" as="geometry" />
        </mxCell>
        <mxCell id="Z_lrUflyEQXZNMrl7onE-17" style="edgeStyle=orthogonalEdgeStyle;rounded=0;orthogonalLoop=1;jettySize=auto;html=1;exitX=0;exitY=0.5;exitDx=0;exitDy=0;" edge="1" parent="1" source="Z_lrUflyEQXZNMrl7onE-4" target="Z_lrUflyEQXZNMrl7onE-13">
          <mxGeometry relative="1" as="geometry" />
        </mxCell>
        <mxCell id="Z_lrUflyEQXZNMrl7onE-20" style="edgeStyle=orthogonalEdgeStyle;rounded=0;orthogonalLoop=1;jettySize=auto;html=1;exitX=0;exitY=0.5;exitDx=0;exitDy=0;entryX=0.5;entryY=0;entryDx=0;entryDy=0;" edge="1" parent="1" source="Z_lrUflyEQXZNMrl7onE-4" target="Z_lrUflyEQXZNMrl7onE-14">
          <mxGeometry relative="1" as="geometry" />
        </mxCell>
        <mxCell id="Z_lrUflyEQXZNMrl7onE-21" style="edgeStyle=orthogonalEdgeStyle;rounded=0;orthogonalLoop=1;jettySize=auto;html=1;exitX=0;exitY=0.5;exitDx=0;exitDy=0;" edge="1" parent="1" source="Z_lrUflyEQXZNMrl7onE-4" target="Z_lrUflyEQXZNMrl7onE-15">
          <mxGeometry relative="1" as="geometry" />
        </mxCell>
        <mxCell id="Z_lrUflyEQXZNMrl7onE-22" style="edgeStyle=orthogonalEdgeStyle;rounded=0;orthogonalLoop=1;jettySize=auto;html=1;exitX=1;exitY=0.5;exitDx=0;exitDy=0;entryX=0.5;entryY=0;entryDx=0;entryDy=0;" edge="1" parent="1" source="Z_lrUflyEQXZNMrl7onE-4" target="Z_lrUflyEQXZNMrl7onE-16">
          <mxGeometry relative="1" as="geometry" />
        </mxCell>
        <mxCell id="Z_lrUflyEQXZNMrl7onE-4" value="输入3个数" style="rounded=0;whiteSpace=wrap;html=1;" vertex="1" parent="1">
          <mxGeometry x="230" y="490" width="110" height="40" as="geometry" />
        </mxCell>
        <mxCell id="Z_lrUflyEQXZNMrl7onE-5" value="输入是1个数" style="rounded=0;whiteSpace=wrap;html=1;" vertex="1" parent="1">
          <mxGeometry x="-70" y="460" width="110" height="40" as="geometry" />
        </mxCell>
        <mxCell id="Z_lrUflyEQXZNMrl7onE-6" value="输入是超过3个数" style="rounded=0;whiteSpace=wrap;html=1;" vertex="1" parent="1">
          <mxGeometry x="-290" y="460" width="110" height="40" as="geometry" />
        </mxCell>
        <mxCell id="Z_lrUflyEQXZNMrl7onE-10" style="edgeStyle=orthogonalEdgeStyle;rounded=0;orthogonalLoop=1;jettySize=auto;html=1;exitX=1;exitY=0.5;exitDx=0;exitDy=0;entryX=0.5;entryY=0;entryDx=0;entryDy=0;" edge="1" parent="1" source="Z_lrUflyEQXZNMrl7onE-2" target="Z_lrUflyEQXZNMrl7onE-4">
          <mxGeometry relative="1" as="geometry" />
        </mxCell>
        <mxCell id="Z_lrUflyEQXZNMrl7onE-11" value="输入是2个数" style="rounded=0;whiteSpace=wrap;html=1;" vertex="1" parent="1">
          <mxGeometry x="-180" y="460" width="110" height="40" as="geometry" />
        </mxCell>
        <mxCell id="Z_lrUflyEQXZNMrl7onE-13" value="3个数小于等于0" style="rounded=0;whiteSpace=wrap;html=1;" vertex="1" parent="1">
          <mxGeometry x="150" y="600" width="110" height="40" as="geometry" />
        </mxCell>
        <mxCell id="Z_lrUflyEQXZNMrl7onE-14" value="两个数小于等于0" style="rounded=0;whiteSpace=wrap;html=1;" vertex="1" parent="1">
          <mxGeometry x="40" y="600" width="110" height="40" as="geometry" />
        </mxCell>
        <mxCell id="Z_lrUflyEQXZNMrl7onE-15" value="一个数小于等于0" style="rounded=0;whiteSpace=wrap;html=1;" vertex="1" parent="1">
          <mxGeometry x="-70" y="600" width="110" height="40" as="geometry" />
        </mxCell>
        <mxCell id="Z_lrUflyEQXZNMrl7onE-25" style="edgeStyle=orthogonalEdgeStyle;rounded=0;orthogonalLoop=1;jettySize=auto;html=1;exitX=0;exitY=0.5;exitDx=0;exitDy=0;" edge="1" parent="1" source="Z_lrUflyEQXZNMrl7onE-16" target="Z_lrUflyEQXZNMrl7onE-23">
          <mxGeometry relative="1" as="geometry" />
        </mxCell>
        <mxCell id="Z_lrUflyEQXZNMrl7onE-26" style="edgeStyle=orthogonalEdgeStyle;rounded=0;orthogonalLoop=1;jettySize=auto;html=1;exitX=1;exitY=0.5;exitDx=0;exitDy=0;" edge="1" parent="1" source="Z_lrUflyEQXZNMrl7onE-16" target="Z_lrUflyEQXZNMrl7onE-24">
          <mxGeometry relative="1" as="geometry" />
        </mxCell>
        <mxCell id="Z_lrUflyEQXZNMrl7onE-16" value="3个数是正数" style="rounded=0;whiteSpace=wrap;html=1;" vertex="1" parent="1">
          <mxGeometry x="330" y="600" width="110" height="40" as="geometry" />
        </mxCell>
        <mxCell id="Z_lrUflyEQXZNMrl7onE-23" value="两数之和小于等于第三边" style="rounded=0;whiteSpace=wrap;html=1;" vertex="1" parent="1">
          <mxGeometry x="240" y="680" width="110" height="40" as="geometry" />
        </mxCell>
        <mxCell id="Z_lrUflyEQXZNMrl7onE-30" style="edgeStyle=orthogonalEdgeStyle;rounded=0;orthogonalLoop=1;jettySize=auto;html=1;exitX=1;exitY=0.5;exitDx=0;exitDy=0;" edge="1" parent="1" source="Z_lrUflyEQXZNMrl7onE-24" target="Z_lrUflyEQXZNMrl7onE-29">
          <mxGeometry relative="1" as="geometry" />
        </mxCell>
        <mxCell id="Z_lrUflyEQXZNMrl7onE-31" style="edgeStyle=orthogonalEdgeStyle;rounded=0;orthogonalLoop=1;jettySize=auto;html=1;exitX=1;exitY=0.5;exitDx=0;exitDy=0;" edge="1" parent="1" source="Z_lrUflyEQXZNMrl7onE-24" target="Z_lrUflyEQXZNMrl7onE-28">
          <mxGeometry relative="1" as="geometry" />
        </mxCell>
        <mxCell id="Z_lrUflyEQXZNMrl7onE-24" value="两数之和大于第三边" style="rounded=0;whiteSpace=wrap;html=1;" vertex="1" parent="1">
          <mxGeometry x="420" y="680" width="110" height="40" as="geometry" />
        </mxCell>
        <mxCell id="Z_lrUflyEQXZNMrl7onE-28" value="两数相等" style="rounded=0;whiteSpace=wrap;html=1;" vertex="1" parent="1">
          <mxGeometry x="640" y="770" width="110" height="40" as="geometry" />
        </mxCell>
        <mxCell id="Z_lrUflyEQXZNMrl7onE-29" value="三数相等" style="rounded=0;whiteSpace=wrap;html=1;" vertex="1" parent="1">
          <mxGeometry x="510" y="770" width="110" height="40" as="geometry" />
        </mxCell>
        <mxCell id="Z_lrUflyEQXZNMrl7onE-32" value="左枝是无效等价类&lt;div&gt;右枝是有效等价类&lt;/div&gt;" style="text;html=1;align=center;verticalAlign=middle;resizable=0;points=[];autosize=1;strokeColor=none;fillColor=none;" vertex="1" parent="1">
          <mxGeometry x="354" y="360" width="120" height="40" as="geometry" />
        </mxCell>
        <mxCell id="Z_lrUflyEQXZNMrl7onE-33" value="从这一层开始" style="text;html=1;align=center;verticalAlign=middle;resizable=0;points=[];autosize=1;strokeColor=none;fillColor=none;" vertex="1" parent="1">
          <mxGeometry x="515" y="460" width="100" height="30" as="geometry" />
        </mxCell>
        <mxCell id="Z_lrUflyEQXZNMrl7onE-35" value="" style="html=1;shadow=0;dashed=0;align=center;verticalAlign=middle;shape=mxgraph.arrows2.arrow;dy=0.6;dx=40;notch=0;" vertex="1" parent="1">
          <mxGeometry x="414" y="470" width="90" height="20" as="geometry" />
        </mxCell>
      </root>
    </mxGraphModel>
  </diagram>
</mxfile>
